 <svg width="0" height="0" class="hidden">
    <symbol xmlns="http://www.w3.org/2000/svg" viewBox="0 0 24 24" aria-hidden="true"
        id="sun">
        <path
            d="M6.995 12c0 2.761 2.246 5.007 5.007 5.007s5.007-2.246 5.007-5.007-2.246-5.007-5.007-5.007S6.995 9.239 6.995 12zM11 19h2v3h-2zm0-17h2v3h-2zm-9 9h3v2H2zm17 0h3v2h-3zM5.637 19.778l-1.414-1.414 2.121-2.121 1.414 1.414zM16.242 6.344l2.122-2.122 1.414 1.414-2.122 2.122zM6.344 7.759 4.223 5.637l1.415-1.414 2.12 2.122zm13.434 10.605-1.414 1.414-2.122-2.122 1.414-1.414z">
        </path>
    </symbol>
    <symbol xmlns="http://www.w3.org/2000/svg" viewBox="0 0 24 24" aria-hidden="true"
        id="moon">
        <path
            d="M12 11.807A9.002 9.002 0 0 1 10.049 2a9.942 9.942 0 0 0-5.12 2.735c-3.905 3.905-3.905 10.237 0 14.142 3.906 3.906 10.237 3.905 14.143 0a9.946 9.946 0 0 0 2.735-5.119A9.003 9.003 0 0 1 12 11.807z">
        </path>
    </symbol>

    <symbol xmlns="http://www.w3.org/2000/svg" viewBox="0 0 24 24" aria-hidden="true"
        id="page">
        <rect class="rect-1" />
        <rect class="rect-2" x="4" y="4" rx="3" />
        <path class="path-1" d="M4 17.3333H44" />
        <path class="path-2" d="M17.3333 44V17.3333" />
    </symbol>
    <symbol xmlns="http://www.w3.org/2000/svg" viewBox="0 0 24 24" aria-hidden="true"
        id="dna">
        <path d="M19.67.5h0a12,12,0,0,1-6,10.59L12,12l-1.67-.91A12,12,0,0,1,4.33.5h0" />
        <path d="M4.33,23.5h0a12,12,0,0,1,6-10.59L12,12l1.67.91a12,12,0,0,1,6,10.59h0" />
        <line x1="19.49" y1="3.38" x2="8.17" y2="3.38" />
        <line x1="18.02" y1="7.21" x2="10.08" y2="7.21" />
        <line x1="13.92" y1="16.79" x2="5.98" y2="16.79" />
        <line x1="15.83" y1="20.63" x2="4.51" y2="20.63" />
    </symbol>
 </svg>

